# xmcd CD database file
#
# Track frame offsets:
#	150
#	41680
#	74609
#	108574
#	131439
#	163850
#
# Disc length: 2490 seconds
#
# Revision: 0
# Processed by: cddbd v1.5.2PL0 Copyright (c) Steve Scherf et al.
# Submitted via: CDex 1.51
#
DISCID=5509b806
DTITLE=Black Oath - Behold The Abyss
DYEAR=2018
DGENRE=Doom Metal
TTITLE0=Behold the Abyss
TTITLE1=Chants of Aradia
TTITLE2=Lilith Black Moon
TTITLE3=Once Death Sang
TTITLE4=Profane Saviour
TTITLE5=Everlasting Darkness
EXTD=YEAR: 2018
EXTT0=
EXTT1=
EXTT2=
EXTT3=
EXTT4=
EXTT5=
PLAYORDER=
